PathFileType	4	(X/Y/Z)	16_2_26_p1_0-466_filt_butterworth.trc
DataRate	CameraRate	NumFrames	NumMarkers	Units	OrigDataRate	OrigDataStartFrame	OrigNumFrames
59.0	59.0	6	27	m	59.0	349	466
Frame#	Time	RHip			RKnee			RAnkle			RBigToe			RSmallToe			RHeel			LHip			LKnee			LAnkle			LBigToe			LSmallToe			LHeel			Neck			Head			Nose			RShoulder			RElbow			RWrist			RThumb			RIndex			RPinky			LShoulder			LElbow			LWrist			LThumb			LIndex			LPinky			
		X1	Y1	Z1	X2	Y2	Z2	X3	Y3	Z3	X4	Y4	Z4	X5	Y5	Z5	X6	Y6	Z6	X7	Y7	Z7	X8	Y8	Z8	X9	Y9	Z9	X10	Y10	Z10	X11	Y11	Z11	X12	Y12	Z12	X13	Y13	Z13	X14	Y14	Z14	X15	Y15	Z15	X16	Y16	Z16	X17	Y17	Z17	X18	Y18	Z18	X19	Y19	Z19	X20	Y20	Z20	X21	Y21	Z21	X22	Y22	Z22	X23	Y23	Z23	X24	Y24	Z24	X25	Y25	Z25	X26	Y26	Z26	X27	Y27	Z27	
349	5.915254237288136	0.29793998018658113	0.6183910804690395	0.771237330165187	0.27660499190616394	0.3616979178187252	1.0165160332016339	0.2573254280744757	0.6816747586735141	1.3966066848803023	0.24609959648756036	0.5069867156855847	1.3901378020195816	0.26306744673197646	0.5393048108963665	1.3954961902591536	0.23057699394881945	0.7525656659815132	1.4575536358436811	0.08154620334358556	0.6683791787108213	0.7442260756993768	0.0009608044588172742	0.4696128202134156	0.9944378692624221	0.06890052925000203	0.6730817223247609	1.3621085090295633	0.04051516906960237	0.4171328197891352	1.3432835935377971	-0.0071929286890165655	0.49950975275504106	1.3549359228462203	0.11008195818798036	0.7684696201187478	1.4328113474707338	0.1382980663380777	0.33141389602766286	0.46004406127315	0.12138576348732485	0.05039965478362411	0.2195589731973006	0.12917476200954917	0.09115808153293929	0.37602560377248767	0.29535273722498273	0.2532112070141903	0.46554216940563425	0.43216262466973215	0.2778017011106291	0.7479640297033517	0.348746933814328	0.20777674874866203	0.9621994367551479	0.26714791199783894	0.24958126630877883	1.0743853685777114	0.27645777747727945	0.21938481818151936	1.0782275316820178	0.3268426373465969	0.2787593643462448	1.1251628501185515	-0.024491539348435124	0.36468194893108463	0.3544499806427268	-0.30314666921948974	0.4538600934854612	0.33109877005857624	-0.12016966418524247	0.24049082539648464	0.2653786102505503	-0.031671687817119834	0.14289876050571393	0.2641305248741943	-0.02619542711349649	0.08832128839932009	0.21420909759951529	-0.07728756721815296	0.09886702764516861	0.21885086925182484
350	5.932203389830509	0.2962002841045182	0.618584970332916	0.7710689727154807	0.27948763268781085	0.3662855487044572	1.017313459698261	0.25558519232584104	0.6856351028036147	1.3975263178147812	0.24565363694707387	0.5062604073349591	1.3899032847986235	0.26470927232455393	0.541109486477407	1.3973592019231988	0.22882321095500394	0.7527327458523354	1.4568389397670007	0.07772123363627918	0.6631119677020082	0.7428921368097676	0.002192945757157059	0.4697473938731379	0.994365887767409	0.06864274782685187	0.6718957859956459	1.361424090449688	0.041167575333562814	0.4102044576205468	1.3395184302976717	-0.0074510324873710955	0.4990173642115736	1.3553790386214812	0.1100665233351457	0.7687734128673546	1.4326738182829584	0.13693121385672383	0.32728026274055516	0.45861912960603446	0.12153974315117386	0.05878901623054909	0.21750924230720128	0.1280597283348715	0.09075296723238926	0.37044733302564353	0.29451445373890445	0.25390806892086665	0.46444382859642486	0.4340172483808373	0.2776879689177875	0.74254945203611	0.35100586171180254	0.208067723611527	0.961011065114212	0.2696121365358247	0.2547373300571794	1.0747441592444995	0.27827145387929564	0.22470874306247315	1.0778788513673856	0.32875771174549534	0.28040905223161544	1.123999107139376	-0.02974792433723733	0.3626250861061878	0.35369510461208453	-0.30773384859820935	0.40882574339856725	0.32534446552255025	-0.11131355225815151	0.24347226120360904	0.26656973584210786	-0.02240509875950687	0.16302415238647727	0.2636119270199021	-0.018372123867999274	0.09791576608535095	0.2155787810629325	-0.07400700988225761	0.09841904313864126	0.218351375905992
351	5.9491525423728815	0.2949335724762893	0.617328460887072	0.7683067446937578	0.28321693039396284	0.3746924546064002	1.0194012127930843	0.25372280968127253	0.6911412796559931	1.3991210653327364	0.24521331223227041	0.5055357433290926	1.3896619262565715	0.26618480923998694	0.5426076383016648	1.3989835088300782	0.22675566144011366	0.7564196895373303	1.457102087174111	0.07375790528023457	0.6565365711675075	0.7408408716686249	0.0036905183967274433	0.4698324798230283	0.994383565433953	0.06811610944288712	0.668662576020161	1.3601233118887022	0.04197836344682754	0.40102650701364845	1.3343045255015125	-0.007641635281271651	0.4981435713813477	1.354461379786004	0.11025458615691354	0.769578054518907	1.4327718144054113	0.13588522615266044	0.3240423664010879	0.45778602192788986	0.12040244047652733	0.0660329100220273	0.21492102189485085	0.1269959444962038	0.09098724817441034	0.3664616691795186	0.2933092304664763	0.25412966931361114	0.4634150858878372	0.43614832024522177	0.27716880600464466	0.7359688650856742	0.35423466183462937	0.21177390177422847	0.9611388564404114	0.27260560609677637	0.2576342942800063	1.0750227582087806	0.28195994953813835	0.23188772627728824	1.078022632061638	0.3310334069955293	0.2839975398739244	1.1212997074823148	-0.03394552734578028	0.3610543635014461	0.35146337468138555	-0.3097126254491443	0.3877644070134365	0.32213746558046025	-0.10520905397379626	0.24321978714340742	0.2671329511527955	-0.019842118969399858	0.1672655494923235	0.26390988242313085	-0.01571459197341453	0.10371540492936784	0.21729361434733055	-0.07046490822895693	0.09887777334639564	0.21890804700588035
352	5.966101694915254	0.2942756737476835	0.6146322122630721	0.7645832386186449	0.2862937375678102	0.3824553827358779	1.0209036225446386	0.25359621491754086	0.6980101684152598	1.4004785815863596	0.24478180295857854	0.5048139704259341	1.3894313119869615	0.26725481548777236	0.5433554992619868	1.40020099399167	0.2251561397452424	0.76388680560226	1.4589989539270276	0.07102828427678708	0.6507136054211808	0.7383271185466251	0.004390898204493386	0.4698675007441246	0.9944438768005467	0.06745441555999333	0.6642238675397091	1.3586002904727945	0.04273034361625725	0.3942313100262662	1.3300711141614951	-0.007699167289239775	0.49770456719404627	1.3543638955750603	0.11044077780115352	0.7691634225093434	1.4326248038100657	0.13535165616904693	0.32261049116698476	0.4568486028870331	0.11928072124394616	0.06721453178869745	0.2117372459597772	0.12630938330149144	0.09226709788091189	0.36358837427162455	0.2921042976266293	0.25395255752080265	0.46196690193580725	0.43904894271020417	0.2766477192874429	0.7295660707934684	0.35760407248466297	0.21648450218038612	0.9615907683086358	0.276949831236089	0.25933467788465286	1.0756710518307502	0.2873951090258813	0.2386989455611242	1.0780948163170665	0.3330908214906851	0.28863645565054086	1.1168812042114558	-0.03572167519282011	0.3625256578349739	0.34830590741789663	-0.3089125638515978	0.39305613405538053	0.3213517769844759	-0.10476009203749324	0.24053894306582368	0.2655406953982468	-0.02402724373401664	0.1560899586729046	0.2635225872941815	-0.017532732460695245	0.10488742492598901	0.21754128625430705	-0.06905022276589658	0.09954578715302993	0.21970816611869576
353	5.983050847457627	0.29397095421988834	0.6100476568138502	0.7610378422978793	0.28777418312783404	0.38692200448648484	1.0206653071057457	0.2557387541626405	0.70602296035703	1.4019596174072622	0.24434874853684718	0.5040925236383458	1.3892569858960901	0.267973427278304	0.5436475421181765	1.4011835246771054	0.22581755209318619	0.7756178842977768	1.4632160671783474	0.0695226238216505	0.6455556433423087	0.7356519585488375	0.0037113293837771236	0.46980985775080314	0.9944924674877454	0.06685901663995412	0.6607587083327408	1.3575751710607014	0.04369724808642435	0.3943880149871589	1.3297314431319358	-0.007360934724810555	0.49974924998525705	1.3570740486649373	0.11048251620416105	0.7658369237712666	1.4320723896531842	0.13520669402127913	0.3226470035006842	0.45478214806042755	0.11816094386941547	0.06334766968758627	0.20812205751771995	0.1256891708296499	0.09512665490837803	0.3604019433441859	0.29111145181701253	0.25345575192985	0.45890389794861786	0.44215021687928713	0.27706043339270686	0.7236202656074139	0.359775650630743	0.21977471176518687	0.9612274730870183	0.2827139274017822	0.2622397801817716	1.0765102393722876	0.29299440437603863	0.24303896760443028	1.0774834717994106	0.3344419058397866	0.29242460092687156	1.1115467361448255	-0.035497169225184734	0.3701844310030751	0.3460702907879377	-0.30607912449457464	0.4187488015753685	0.3220904506039791	-0.10972172184885867	0.2368407793927837	0.2615077186497119	-0.03187992405431415	0.13382897634556004	0.26143773533078574	-0.022930050070945264	0.09874049090733894	0.21616348076642203	-0.07020763138345812	0.10176726665229341	0.219487857285796
354	6.0	0.29358027771190287	0.603094776284915	0.757534576681458	0.2878413936969994	0.38876663138051115	1.0192709651236262	0.2576145302502123	0.7111340468063141	1.4030989976995805	0.2438744211831752	0.5033597620405323	1.3891801630013072	0.26950343055014475	0.5459924930500974	1.4032311353952267	0.2277655783484469	0.7868738303231381	1.4686779480014933	0.06833462653078833	0.6397810578907277	0.7332251217169294	0.002209053111985848	0.4695851438883687	0.9944921019882661	0.06655218029124613	0.6599215187194968	1.3579842931109223	0.04546428388401271	0.4036727955510902	1.334696463726146	-0.006216538110650333	0.5061693789361127	1.3629378477297478	0.11022308471302109	0.7604975094049655	1.4315083354074547	0.13548735023491193	0.3241572488217276	0.4514984652235839	0.11655797309827169	0.05773838271733508	0.20433467028576524	0.12499392752935246	0.09929943518835314	0.3563306791406835	0.29031127759552544	0.25266598468703294	0.45382004584770813	0.4446545188764444	0.27892258262941944	0.717780673697813	0.36112918458470933	0.2207605338666038	0.9589927692804627	0.2886460312497606	0.2661923601205727	1.0761605274714925	0.29699715072305044	0.2442800868813671	1.0753841530981088	0.3351912801499195	0.2939840832716712	1.1059988960600644	-0.03395818220448755	0.3818087565060599	0.3453837392645408	-0.3026933645910355	0.45319033503260153	0.32342704874521383	-0.11793382861843629	0.2337572210608475	0.25632571091879347	-0.04038703254453988	0.10951180009971614	0.256916294937749	-0.03127905852093146	0.08823837237821784	0.21315588325337545	-0.07319036287418125	0.10805071315947001	0.2164964635280787
